HIERARCHY
ROOT root
{
	OFFSET 0 0 0
	CHANNELS 6 Xposition Yposition Zposition Zrotation Xrotation Yrotation
	JOINT throax
	{
		OFFSET 0 87.2 0
		CHANNELS 3 Zrotation Xrotation Yrotation
		JOINT headlr
		{
			OFFSET 0 50.5 0
			CHANNELS 3 Zrotation Xrotation Yrotation
			JOINT headud
			{
				OFFSET 0 0 0
				CHANNELS 3 Zrotation Xrotation Yrotation
				End Site
				{
					OFFSET 0 34.4 33.2
				}
			}
		}
		JOINT lshoulderjoint
		{
			OFFSET 82 0 0
			CHANNELS 3 Zrotation Xrotation Yrotation
			JOINT lhumerus
			{
				OFFSET 0 -16 0
				CHANNELS 3 Zrotation Xrotation Yrotation
				JOINT lelbow
				{
					OFFSET 60 0 0
					CHANNELS 3 Zrotation Xrotation Yrotation
					End Site
					{
						OFFSET 129 0 0
					}
				}
			}
		}
		JOINT rshoulderjoint
		{
			OFFSET -82 0 0
			CHANNELS 3 Zrotation Xrotation Yrotation
			JOINT rhumerus
			{
				OFFSET 0 -16 0
				CHANNELS 3 Zrotation Xrotation Yrotation
				JOINT relbow
				{
					OFFSET -60 0 0
					CHANNELS 3 Zrotation Xrotation Yrotation
					End Site
					{
						OFFSET -129 0 0
					}
				}
			}
		}

	}
	JOINT lfemur
	{
		OFFSET 37 0 0
		CHANNELS 3 Zrotation Xrotation Yrotation
		JOINT ltibiaud
		{
			OFFSET 0 -35 0
			CHANNELS 3 Zrotation Xrotation Yrotation
			JOINT ltibialr
			{
				OFFSET 0 0 0
				CHANNELS 3 Zrotation Xrotation Yrotation
				JOINT lknee
				{
					OFFSET 0 -93 0
					CHANNELS 3 Zrotation Xrotation Yrotation
					JOINT ltoeud
					{
						OFFSET 0 -93 0
						CHANNELS 3 Zrotation Xrotation Yrotation
						JOINT ltoelr
						{
							OFFSET 0 0 0
							CHANNELS 3 Zrotation Xrotation Yrotation
							End Site
							{
								OFFSET 0 -33.5 0
							}
						}
					}
				}
			}
		}
	}
	JOINT rfemur
	{
		OFFSET -37 0 0
		CHANNELS 3 Zrotation Xrotation Yrotation
		JOINT rtibiaud
		{
			OFFSET 0 -35 0
			CHANNELS 3 Zrotation Xrotation Yrotation
			JOINT rtibialr
			{
				OFFSET 0 0 0
				CHANNELS 3 Zrotation Xrotation Yrotation
				JOINT rknee
				{
					OFFSET 0 -93 0
					CHANNELS 3 Zrotation Xrotation Yrotation
					JOINT rtoeud
					{
						OFFSET 0 -93 0
						CHANNELS 3 Zrotation Xrotation Yrotation
						JOINT rtoelr
						{
							OFFSET 0 0 0
							CHANNELS 3 Zrotation Xrotation Yrotation
							End Site
							{
								OFFSET 0 -33.5 0
							}
						}
					}
				}
			}
		}
	}
}
MOTION
Frames: 1
Frame Time: 0.041667
0 0 0 0 0 0 0 0 0 0 0 1.757813e-01 0 -8.085938e+00 0 0 3.690309e+01 0 -6.644531e+01 0 0 0 0 -1.184766e+02 0 5.273173e+01 0 7.382813e+01 0 0 0 0 1.157520e+02 0 0 -5.712891e+00 0 -3.472522e+01 0 6.152344e+00 0 0 0 5.213588e+01 0 0 -3.095310e+01 0 NaN NaN NaN 0 0 -3.691406e+00 0 -3.482873e+01 0 -1.135547e+00 0 0 0 5.230254e+01 0 0 -2.357694e+01 0 -7.382813e+00 0 0 
